<?xml version="1.0" encoding="UTF-8"?>
<svg id="Layer_2" data-name="Layer 2" xmlns="http://www.w3.org/2000/svg" viewBox="0 0 6.37 4.69">
  <defs>
    <style>
      .cls-1 {
        fill: #fff;
      }
    </style>
  </defs>
  <g id="Layer_2-2" data-name="Layer 2">
    <g>
      <path class="cls-1" d="m3.12.05v1.77s-.04.07-.08.05l-1.56-.78s-.04-.07,0-.1L3.04,0s.08,0,.08.05Z"/>
      <path class="cls-1" d="m3.3,1.86l1.52-.76s.04-.08,0-.1L3.3.03s-.09,0-.09.05v1.73s.05.07.09.05Z"/>
      <path class="cls-1" d="m3.29,1.98l1.59-.78c.09-.04.2.02.2.12v1.53s-.02.05-.04.06c-.11.04-.4.22-.42.23l-1.32.82s-.11-.01-.11-.07l.03-1.8c0-.05.03-.1.08-.12Z"/>
      <path class="cls-1" d="m1.35,1.15l1.74.83s.03.03.03.06l-.03,1.85c0,.05-.06.08-.1.04-.21-.2-.77-.64-1.69-.93-.02,0-.04-.03-.04-.06,0-.24,0-1.4,0-1.74,0-.04.05-.07.09-.05Z"/>
      <path class="cls-1" d="m0,3.58s.03.24.07.25c.05-.02,1.7.12,1.95.29.28.12.92.58,1.09.56.2,0,.25.05.99-.46.25-.11.56-.33,1.58-.34.27,0,.6-.01.62-.04.02-.03.07-.25.07-.26,0-.01-.11-.03-.45-.02-.35,0-1.57.14-1.86.35-.3.19-.69.6-.87.59-.05,0-.13.02-.33-.17-.2-.19-.58-.51-1.09-.61-.29-.09-1.65-.18-1.7-.17C.02,3.56,0,3.58,0,3.58Z"/>
      <rect class="cls-1" x=".05" y="4.29" width="1.12" height=".09" rx=".04" ry=".04"/>
      <rect class="cls-1" x="5.15" y="3.04" width=".56" height=".04" rx=".02" ry=".02"/>
      <rect class="cls-1" x=".61" y="3.04" width=".56" height=".04" rx=".02" ry=".02"/>
      <rect class="cls-1" x="5.15" y="4.29" width="1.12" height=".09" rx=".04" ry=".04"/>
    </g>
  </g>
</svg>