<?xml version="1.0" encoding="UTF-8"?>
<svg id="Layer_2" data-name="Layer 2" xmlns="http://www.w3.org/2000/svg" xmlns:xlink="http://www.w3.org/1999/xlink" viewBox="0 0 12.09 8.9">
  <defs>
    <style>
      .cls-1 {
        fill: #fff;
      }

      .cls-2 {
        fill: url(#linear-gradient);
      }
    </style>
    <linearGradient id="linear-gradient" x1="0" y1="7.83" x2="12.09" y2="7.83" gradientUnits="userSpaceOnUse">
      <stop offset="0" stop-color="#fff"/>
      <stop offset=".86" stop-color="#fff"/>
      <stop offset="1" stop-color="#fff"/>
    </linearGradient>
  </defs>
  <g id="Layer_2-2" data-name="Layer 2">
    <g>
      <path class="cls-1" d="m5.92.1v3.35c0,.08-.08.13-.15.09l-2.96-1.48c-.07-.04-.08-.14,0-.18L5.76.02c.07-.04.16,0,.16.09Z"/>
      <path class="cls-1" d="m6.26,3.52l2.88-1.44c.08-.04.08-.15.01-.2L6.27.05c-.08-.05-.17,0-.17.1v3.28c0,.08.09.14.16.1Z"/>
      <path class="cls-1" d="m6.25,3.76l3.01-1.48c.17-.08.37.04.37.23v2.91s-.03.09-.07.11c-.22.08-.76.41-.8.44l-2.5,1.56c-.08.05-.2-.02-.2-.13l.05-3.41c0-.1.06-.18.14-.23Z"/>
      <path class="cls-1" d="m2.55,2.18l3.3,1.58s.07.06.06.1l-.05,3.52c0,.1-.12.15-.19.08-.4-.37-1.46-1.22-3.21-1.77-.05-.01-.08-.06-.08-.11,0-.46,0-2.66,0-3.3,0-.08.09-.14.16-.1Z"/>
      <path class="cls-2" d="m0,6.8s.06.45.13.47c.09-.05,3.22.24,3.71.55.54.23,1.75,1.1,2.07,1.07.39,0,.48.09,1.88-.87.48-.2,1.07-.62,3-.65.52-.02,1.14-.02,1.17-.08.04-.06.14-.47.13-.49,0-.02-.21-.06-.86-.03-.66-.01-2.98.27-3.52.67-.57.36-1.31,1.14-1.65,1.13-.09,0-.26.03-.64-.32-.38-.35-1.09-.97-2.07-1.16-.54-.16-3.14-.35-3.24-.32C.03,6.75,0,6.8,0,6.8Z"/>
      <rect class="cls-1" x=".09" y="8.15" width="2.12" height=".16" rx=".08" ry=".08"/>
      <rect class="cls-1" x="9.77" y="5.77" width="1.06" height=".08" rx=".04" ry=".04"/>
      <rect class="cls-1" x="1.15" y="5.78" width="1.06" height=".08" rx=".04" ry=".04"/>
      <rect class="cls-1" x="9.77" y="8.15" width="2.12" height=".16" rx=".08" ry=".08"/>
    </g>
  </g>
</svg>